<?xml version="1.0" encoding="utf-8"?>
<!-- Generator: Adobe Illustrator 16.0.4, SVG Export Plug-In . SVG Version: 6.00 Build 0)  -->
<!DOCTYPE svg PUBLIC "-//W3C//DTD SVG 1.1//EN" "http://www.w3.org/Graphics/SVG/1.1/DTD/svg11.dtd">
<svg version="1.1" id="Layer_1" xmlns="http://www.w3.org/2000/svg" xmlns:xlink="http://www.w3.org/1999/xlink" x="0px" y="0px"
	 width="64px" height="64px" viewBox="0 0 64 64" enable-background="new 0 0 64 64" xml:space="preserve">
<g>
	<path fill="#231F20" d="M32.763,56.121L47.241,64V21.157l-14.478-7.879V56.121z M42.268,44.088c0.758,0.182,1.615,0.32,2.699,0.436
		l-0.21,1.959c-1.169-0.125-2.106-0.277-2.948-0.479L42.268,44.088z M37.962,41.592c0.21,0.26,0.415,0.482,0.625,0.681
		c0.366,0.345,0.789,0.653,1.258,0.914l-0.958,1.721c-0.612-0.341-1.168-0.745-1.653-1.203c-0.274-0.259-0.537-0.545-0.803-0.874
		L37.962,41.592z M34.445,36.926c0.43,0.403,0.83,0.84,1.188,1.299c0.238,0.305,0.483,0.649,0.77,1.083l-1.643,1.087
		c-0.261-0.396-0.471-0.69-0.679-0.957c-0.296-0.378-0.627-0.74-0.983-1.075L34.445,36.926z"/>
	<path fill="#231F20" d="M30.986,36.852c-0.771-0.413-1.589-0.721-2.429-0.918l0.448-1.918c0.765,0.179,1.512,0.435,2.231,0.764
		V13.278l-14.478,7.879V64l14.478-7.879V36.383L30.986,36.852z M19.595,38.427c-0.16,0.154-0.316,0.316-0.483,0.487l-0.038,0.04
		l-1.414-1.372l0.039-0.04c0.169-0.175,0.345-0.355,0.527-0.532c0.542-0.524,1.145-0.999,1.792-1.413l1.062,1.66
		C20.543,37.6,20.044,37.994,19.595,38.427z M23.432,36.154l-0.599-1.877c1-0.318,2.03-0.504,3.063-0.551l0.089,1.968
		C25.125,35.733,24.266,35.888,23.432,36.154z"/>
	<path fill="#231F20" d="M14.715,41.073c-0.504,0-1.047-0.054-1.66-0.164l0.349-1.938c0.854,0.153,1.515,0.174,2.074,0.065V21.157
		L1,13.278v42.843L15.478,64V41.028C15.234,41.057,14.981,41.073,14.715,41.073z M4.317,25.418c0-1.344,1.09-2.434,2.435-2.434
		c1.344,0,2.434,1.09,2.434,2.434c0,0.851-0.437,1.6-1.099,2.035l0.156,0.973l-1.945,0.312l-0.154-0.962
		C5.093,27.506,4.317,26.553,4.317,25.418z M6.752,31.563l1.945-0.312l0.454,2.825l-1.945,0.312L6.752,31.563z M10.058,40.035
		c-0.724-0.35-1.272-0.793-1.676-1.354c-0.273-0.381-0.483-0.824-0.639-1.354l1.89-0.557c0.092,0.314,0.207,0.564,0.349,0.762
		c0.207,0.288,0.512,0.527,0.934,0.73L10.058,40.035z"/>
	<path fill="#231F20" d="M54.652,2.596c-3.677,0-6.657,2.98-6.657,6.658c0,0.007,0,0.015,0,0.022
		c0.003,1.015,0.305,2.006,0.842,2.867c0.288,0.461,0.678,1.094,1.121,1.831c1.874,3.123,4.694,8.128,4.694,9.985
		c0-1.857,2.819-6.861,4.692-9.984c0.436-0.726,0.831-1.366,1.124-1.835c0.537-0.86,0.838-1.851,0.841-2.865
		c0-0.007,0-0.014,0-0.021C61.31,5.577,58.328,2.596,54.652,2.596z M54.652,11.417c-1.372,0-2.484-1.112-2.484-2.484
		s1.112-2.484,2.484-2.484c1.372,0,2.484,1.112,2.484,2.484S56.023,11.417,54.652,11.417z"/>
	<path fill="#231F20" d="M59.624,15.115c-2.18,3.7-4.973,8.832-4.973,10.846c0-1.321-1.201-3.982-2.643-6.702l-3.487,1.898v23.584
		c0.649-0.029,1.184-0.129,1.658-0.31l0.703,1.84c-0.699,0.267-1.458,0.41-2.361,0.442V64L63,56.121V13.278L59.624,15.115z
		 M55.014,41.617c-0.339,0.986-0.842,1.906-1.453,2.66l-1.53-1.241c0.468-0.577,0.855-1.289,1.121-2.06
		c0.015-0.045,0.03-0.09,0.045-0.135l1.874,0.607C55.052,41.504,55.033,41.561,55.014,41.617z M55.831,35.919
		c-0.035,0.78-0.075,1.665-0.163,2.524l-1.96-0.202c0.083-0.803,0.12-1.62,0.155-2.41l0.018-0.39l1.968,0.089L55.831,35.919z
		 M56.024,31.595l-0.048,1.066l-1.968-0.088l0.043-0.967c-0.859-0.375-1.46-1.233-1.46-2.231c0-1.344,1.09-2.434,2.434-2.434
		s2.434,1.09,2.434,2.434C57.46,30.363,56.871,31.213,56.024,31.595z"/>
</g>
</svg>
