<?xml version="1.0" encoding="utf-8"?>
<!-- Generator: Adobe Illustrator 16.0.4, SVG Export Plug-In . SVG Version: 6.00 Build 0)  -->
<!DOCTYPE svg PUBLIC "-//W3C//DTD SVG 1.1//EN" "http://www.w3.org/Graphics/SVG/1.1/DTD/svg11.dtd">
<svg version="1.1" id="Layer_1" xmlns="http://www.w3.org/2000/svg" xmlns:xlink="http://www.w3.org/1999/xlink" x="0px" y="0px"
	 width="250px" height="250px" viewBox="0 0 250 250" enable-background="new 0 0 250 250" xml:space="preserve">
<g>
	<path fill="#231F20" d="M240.701,113.616h-0.619V98.593h0.619c4.031,0,7.299,3.268,7.299,7.299v0.425
		C248,110.348,244.732,113.616,240.701,113.616z"/>
	<rect x="110.582" y="95.649" fill="#231F20" width="51.693" height="9.44"/>
	<path fill="#231F20" d="M23.167,123.158c-0.197,0.134-0.316,0.203-0.316,0.203c-6.991,3.675-11.489,6.835-14.333,9.219
		c-1.932,1.619-0.928,4.764,1.583,4.979c14.741,1.266,18.583,8.122,19.307,9.795c0.137,0.316,0.273,0.633,0.416,0.947
		c3.86,8.504-0.422,14.873-3.528,18.059c-2.101,2.155-3.776,4.688-4.995,7.439c-10.955,24.729-16.565,48.488-19.13,61.925
		C1.054,241.579,5.548,247,11.507,247h49.411c1.962,0,3.553-1.59,3.553-3.553v-2.765c0-6.447,0.936-12.859,2.778-19.037
		l9.911-33.238c2.349-7.878,9.593-13.277,17.814-13.277h10.507c25.534,0,36.681-8.982,41.447-15.706
		c1.977-2.789,3.161-6.045,3.613-9.433c1.227-9.196,7.35-13.588,12.412-15.668h30.177c1.229,0,2.389-0.571,3.139-1.546l1.308-1.702
		h34.385c3.252,0,5.888-2.636,5.888-5.888v-2.03H23.167z M52.163,226.965c-0.873,2.628-3.331,4.402-6.1,4.402H27.105
		c-4.409,0-7.508-4.338-6.081-8.509c1.432-18.959,12.065-44.44,24.325-71.075h31.777C66.431,176.88,57.819,201.946,52.163,226.965z
		 M121.275,167.321c-14.249,3.803-24.421-1.442-26.227-8.209c-1.421-5.324,1.755-11.133,10.11-15.221
		c-0.118,5.372,2.044,12.578,13.282,15.813c1.09,0.314,1.877-1.041,1.064-1.832c-3.629-3.535-7.885-10.068-1.529-17.906
		c12.035-1.849,21.592,1.832,23.188,7.812C142.972,154.544,135.524,163.518,121.275,167.321z"/>
	<g>
		<path fill="#231F20" d="M57.24,164.536c-2.68-1.443-6.089-0.803-8.042,1.667c-1.953,2.471-1.788,5.936,0.235,8.21L57.24,164.536z"
			/>
		<path fill="#231F20" d="M58.997,165.924l-7.807,9.877c2.681,1.443,6.089,0.804,8.042-1.667S61.02,168.198,58.997,165.924z"/>
	</g>
	<g>
		<path fill="#231F20" d="M33.62,211.614c-1.922,2.36-1.935,5.829,0.124,8.212c2.059,2.383,5.493,2.874,8.107,1.314L33.62,211.614z"
			/>
		<path fill="#231F20" d="M35.313,210.15l8.231,9.526c1.922-2.361,1.935-5.829-0.124-8.212S37.928,208.591,35.313,210.15z"/>
	</g>
	<path fill="#231F20" d="M233.992,93.72h-69.244v13.399h-56.64V93.72H50.322l-3.16-5.2c-1.479-2.437-5.227-1.387-5.227,1.463v3.737
		H37.66c-2.301,0-4.475,1.053-5.9,2.859l-1.056,1.337c-1.73,2.192-4.459,3.349-7.237,3.067l-4.808-0.486
		c-2.856-0.289-4.452,3.208-2.363,5.177l4.119,3.881c6.716,4.225,6.958,7.871,5.723,10.354h211.711V97.578
		C237.849,95.447,236.122,93.72,233.992,93.72z M35.447,115.637c-0.747-0.242-1.157-1.044-0.915-1.791l4.379-13.518
		c0.242-0.748,1.044-1.157,1.791-0.915s1.157,1.044,0.915,1.791l-4.379,13.518C36.996,115.47,36.194,115.879,35.447,115.637z
		 M40.726,115.637c-0.748-0.242-1.157-1.044-0.915-1.791l4.379-13.518c0.242-0.748,1.044-1.157,1.792-0.915s1.157,1.044,0.915,1.791
		l-4.379,13.518C42.275,115.47,41.473,115.879,40.726,115.637z M46.004,115.637c-0.747-0.242-1.157-1.044-0.915-1.791l4.379-13.518
		c0.242-0.748,1.044-1.157,1.791-0.915s1.157,1.044,0.915,1.791l-4.379,13.518C47.553,115.47,46.751,115.879,46.004,115.637z
		 M51.283,115.637c-0.748-0.242-1.157-1.044-0.915-1.791l4.379-13.518c0.242-0.748,1.044-1.157,1.791-0.915s1.157,1.044,0.915,1.791
		l-4.379,13.518C52.832,115.47,52.03,115.879,51.283,115.637z M56.561,115.637c-0.747-0.242-1.157-1.044-0.915-1.791l4.378-13.518
		c0.242-0.748,1.044-1.157,1.792-0.915s1.157,1.044,0.915,1.791l-4.379,13.518C58.11,115.47,57.308,115.879,56.561,115.637z
		 M68.01,101.205l-4.379,13.518c-0.242,0.747-1.044,1.157-1.791,0.915c-0.748-0.242-1.157-1.044-0.915-1.791l4.379-13.518
		c0.242-0.748,1.044-1.157,1.791-0.915S68.252,100.458,68.01,101.205z"/>
</g>
</svg>
