<?xml version="1.0" encoding="utf-8"?>
<!-- Generator: Adobe Illustrator 16.0.4, SVG Export Plug-In . SVG Version: 6.00 Build 0)  -->
<!DOCTYPE svg PUBLIC "-//W3C//DTD SVG 1.1//EN" "http://www.w3.org/Graphics/SVG/1.1/DTD/svg11.dtd">
<svg version="1.1" id="Layer_1" xmlns="http://www.w3.org/2000/svg" xmlns:xlink="http://www.w3.org/1999/xlink" x="0px" y="0px"
	 width="250px" height="250px" viewBox="0 0 250 250" enable-background="new 0 0 250 250" xml:space="preserve">
<g>
	<path fill="#231F20" d="M227.742,89.55c-2.715-5.667-9.419-8.195-15.191-5.709c-2.051,0.883-4.101,1.732-6.15,2.554
		c-0.529,2.838-2.635,5.209-5.531,6.046c-52.237,15.111-102.883,15.275-151.894,0.08c-2.868-0.89-4.928-3.293-5.404-6.138
		c-2.04-0.818-4.08-1.664-6.122-2.542c-5.772-2.485-12.477,0.042-15.191,5.709c-2.876,6.003-0.191,13.214,5.926,15.838
		c32.151,13.793,64.483,20.69,96.816,20.69c32.332,0,64.664-6.897,96.815-20.69C227.933,102.764,230.618,95.553,227.742,89.55z"/>
	<path fill="#231F20" d="M204.962,78.392C204.626,35.592,169.833,1,126.955,1h-3.91C80.134,1,45.32,35.646,45.037,78.49
		C97.863,95.386,151.479,95.352,204.962,78.392z M178.1,73.378c-1.371-0.114-3.083,0-3.312,1.485
		c-0.218,1.417-5.428,5.121-5.011-13.494c0.323,0.084,0.663,0.13,1.013,0.13c1.373,0,2.583-0.692,3.303-1.746
		c3.627,2.642,8.916,7.073,8.69,10.313C182.44,74.977,179.47,73.492,178.1,73.378z M167.992,57.502c0-1.546,1.252-2.799,2.797-2.799
		c1.546,0,2.799,1.253,2.799,2.799c0,1.545-1.253,2.798-2.799,2.798C169.245,60.3,167.992,59.047,167.992,57.502z M181.298,51.105
		c1.599-2.284,5.025-2.513,6.853,4.455c1.828,6.967-0.456,9.366-3.084,9.366c-1.935,0-7.029-4.646-10.492-6.137
		c0.137-0.404,0.213-0.837,0.213-1.287c0-1.062-0.415-2.026-1.09-2.742C175.877,54.15,180.125,52.782,181.298,51.105z
		 M167.249,39.797c8.224-1.256,12.792-0.228,12.45,5.026c-0.88,4.401-4.788,7.12-7.205,9.062c-0.518-0.244-1.095-0.381-1.704-0.381
		c-0.623,0-1.212,0.143-1.738,0.397C166.224,49.729,160.962,40.758,167.249,39.797z M152.136,53.197
		c0.395-1.194,0.49-2.462,0.352-3.713c-0.595-5.434,9.675-5.897,10.193-2.376c0.464,3.154,3.315,6.611,5.144,7.713
		c-0.532,0.588-0.887,1.337-0.995,2.163c-0.022,0.17-0.037,0.342-0.037,0.518c0,0.193,0.016,0.383,0.043,0.568
		c0.167,1.171,0.839,2.178,1.791,2.792c-0.528,3.752,0.659,10.394-0.356,12.013c-1.222,1.948-4.084,3.132-6.618-0.738
		c-0.794-1.213-1.879-2.205-3.166-2.872c-5.656-2.935-2.441-6.798,0.077-6.926c1.797-0.091,4.648-2.317,6.45-3.889
		c-3.988,0.664-9.581,1.112-11.814-0.377C151.383,56.861,151.627,54.737,152.136,53.197z"/>
	<path fill="#231F20" d="M125.585,161.693c-26.503-47.477-78.685-3.307-93.952-22.611c24.84,52.656,82.354,63.722,93.952,26.075
		c11.599,37.646,69.113,26.581,93.953-26.075C204.271,158.387,152.09,114.217,125.585,161.693z M64.501,159.084
		c10.421,3.244,34.47-21.984,51.305,6.307C103.621,181.79,72.837,177.104,64.501,159.084z M135.366,165.391
		c16.835-28.292,40.884-3.063,51.305-6.307C178.334,177.104,147.551,181.79,135.366,165.391z"/>
	<path fill="#231F20" d="M126.234,216.356c-0.787,0.263-1.681,0.263-2.468,0c-2.572-0.861-8.339-2.731-9.175-2.491
		c-1.081,0.312-25.008,11.011-31.226,15.061c0,0,16.897,18.073,41.636,18.073c24.737,0,41.635-18.073,41.635-18.073
		c-6.218-4.05-30.146-14.749-31.227-15.061C134.573,213.625,128.807,215.496,126.234,216.356z"/>
</g>
</svg>
