<?xml version="1.0" encoding="utf-8"?>
<!-- Generator: Adobe Illustrator 16.0.4, SVG Export Plug-In . SVG Version: 6.00 Build 0)  -->
<!DOCTYPE svg PUBLIC "-//W3C//DTD SVG 1.1//EN" "http://www.w3.org/Graphics/SVG/1.1/DTD/svg11.dtd">
<svg version="1.1" id="Layer_1" xmlns="http://www.w3.org/2000/svg" xmlns:xlink="http://www.w3.org/1999/xlink" x="0px" y="0px"
	 width="250px" height="250px" viewBox="0 0 250 250" enable-background="new 0 0 250 250" xml:space="preserve">
<g>
	<path fill="#231F20" d="M125,1C57.178,1,2,56.178,2,124s55.178,123,123,123s123-55.178,123-123S192.822,1,125,1z M187.179,53.458
		l-24.634,25.403c-1.067,1.102-1.067,2.826,0,3.927l24.634,25.403c0.332,0.342,0.255,0.694,0.179,0.873
		c-0.198,0.468-0.743,0.682-1.2,0.399l-43.595-26.891c-0.611-0.376-0.976-1.029-0.976-1.747c0-0.717,0.364-1.371,0.976-1.748
		l43.595-26.89c0.146-0.09,0.294-0.135,0.442-0.135c0.318,0,0.623,0.214,0.758,0.534C187.434,52.765,187.511,53.116,187.179,53.458z
		 M62.821,108.192l24.633-25.403c1.068-1.101,1.068-2.826,0-3.927L62.821,53.458c-0.332-0.342-0.255-0.693-0.179-0.872
		c0.136-0.32,0.44-0.534,0.758-0.534c0.147,0,0.297,0.045,0.442,0.135l43.595,26.89c0.611,0.377,0.976,1.03,0.976,1.748
		c0,0.718-0.364,1.371-0.976,1.748l-43.595,26.891c-0.458,0.283-1.002,0.069-1.2-0.399
		C62.566,108.886,62.489,108.534,62.821,108.192z M49.503,125.327c1.729,2.209,6.348,7.344,15.291,12.533
		c10.677,6.195,29.789,13.58,60.206,13.58s49.529-7.385,60.206-13.58c8.943-5.189,13.562-10.324,15.292-12.533
		c-2.592,30.393-15.458,52.062-38.254,64.419c-17.679,9.583-35.137,9.86-37.069,9.86L125,199.604l-0.174,0.001
		c-1.932,0-19.388-0.276-37.067-9.858C64.961,177.391,52.095,155.721,49.503,125.327z"/>
</g>
</svg>
